HIERARCHY
ROOT Hips
{
 OFFSET 0.000000 0.000000 0.000000
 CHANNELS 6 Xposition Yposition Zposition Yrotation Xrotation Zrotation
 JOINT Chest
 {
  OFFSET 0.000000 9.588913 -0.003946
  CHANNELS 3 Yrotation Xrotation Zrotation
  JOINT Chest2
  {
   OFFSET 0.000000 9.541882 0.008053
   CHANNELS 3 Yrotation Xrotation Zrotation
   JOINT Chest3
   {
    OFFSET 0.000000 9.501360 0.000000
    CHANNELS 3 Yrotation Xrotation Zrotation
    JOINT Chest4
    {
     OFFSET 0.000000 9.491660 0.000000
     CHANNELS 3 Yrotation Xrotation Zrotation
     JOINT Neck
     {
      OFFSET 0.000000 14.331917 0.000000
      CHANNELS 3 Yrotation Xrotation Zrotation
      JOINT Head
      {
       OFFSET 0.000000 8.884799 0.017034
       CHANNELS 3 Yrotation Xrotation Zrotation
       End Site
       {
        OFFSET 0.000000 16.896195 0.008993
       }
      }
     }
     JOINT RightCollar
     {
      OFFSET -2.923010 9.499495 0.000000
      CHANNELS 3 Yrotation Xrotation Zrotation
      JOINT RightShoulder
      {
       OFFSET -13.795216 0.000000 0.000000
       CHANNELS 3 Yrotation Xrotation Zrotation
       JOINT RightElbow
       {
        OFFSET -30.272209 0.000000 0.000000
        CHANNELS 3 Yrotation Xrotation Zrotation
        JOINT RightWrist
        {
         OFFSET -24.478199 0.000000 0.000000
         CHANNELS 3 Yrotation Xrotation Zrotation
         End Site
         {
          OFFSET -18.090752 0.000000 0.000000
         }
        }
       }
      }
     }
     JOINT LeftCollar
     {
      OFFSET 2.923010 9.499495 0.000000
      CHANNELS 3 Yrotation Xrotation Zrotation
      JOINT LeftShoulder
      {
       OFFSET 13.795216 0.000000 0.000000
       CHANNELS 3 Yrotation Xrotation Zrotation
       JOINT LeftElbow
       {
        OFFSET 30.272209 0.000000 0.000000
        CHANNELS 3 Yrotation Xrotation Zrotation
        JOINT LeftWrist
        {
         OFFSET 24.478199 0.000000 0.000000
         CHANNELS 3 Yrotation Xrotation Zrotation
         End Site
         {
          OFFSET 18.090752 0.000000 0.000000
         }
        }
       }
      }
     }
    }
   }
  }
 }
 JOINT RightHip
 {
  OFFSET -7.826875 0.019532 0.001973
  CHANNELS 3 Yrotation Xrotation Zrotation
  JOINT RightKnee
  {
   OFFSET 0.000000 -40.546152 -0.001885
   CHANNELS 3 Yrotation Xrotation Zrotation
   JOINT RightAnkle
   {
    OFFSET 0.000000 -39.417092 -0.003189
    CHANNELS 3 Yrotation Xrotation Zrotation
    JOINT RightToe
    {
     OFFSET 0.000000 -7.579396 17.243563
     CHANNELS 3 Yrotation Xrotation Zrotation
     End Site
     {
      OFFSET 0.000000 -1.500329 6.694466
     }
    }
   }
  }
 }
 JOINT LeftHip
 {
  OFFSET 7.826875 0.019532 0.001973
  CHANNELS 3 Yrotation Xrotation Zrotation
  JOINT LeftKnee
  {
   OFFSET 0.000000 -40.546152 -0.001885
   CHANNELS 3 Yrotation Xrotation Zrotation
   JOINT LeftAnkle
   {
    OFFSET 0.000000 -39.417092 -0.003189
    CHANNELS 3 Yrotation Xrotation Zrotation
    JOINT LeftToe
    {
     OFFSET 0.000000 -7.579396 17.243563
     CHANNELS 3 Yrotation Xrotation Zrotation
     End Site
     {
      OFFSET 0.000000 -1.500329 6.694466
     }
    }
   }
  }
 }
}
MOTION
Frames: 15
Frame Time: 0.008333
0.000000 87.345680 0.000000 0.000000 -5.767889 0.000000 0.000000 11.653876 0.000000 0.000000 -5.885988 0.000000 0.000000 -0.000000 0.000000 0.000000 -0.000000 0.000000 0.000000 12.528808 0.000000 0.000000 0.711711 0.000000 0.000000 -0.000000 0.000000 0.000000 -0.000000 0.000000 2.309063 -0.000000 0.000000 -2.309063 -0.000000 -0.000000 0.000000 -0.000000 0.000000 0.000000 0.000000 0.000000 -2.309063 0.000000 0.000000 2.309063 -0.000000 0.000000 0.000000 8.520374 0.000000 0.000000 1.905768 0.000000 -0.000000 -4.658254 0.000000 0.000000 -0.000000 0.000000 0.000000 8.520374 0.000000 0.000000 1.905768 0.000000 -0.000000 -4.658254 0.000000 0.000000 -0.000000 0.000000
-8.884057 88.294123 -23.390579 133.495600 -4.680234 0.125491 2.445951 2.980823 0.855050 1.379727 1.708616 0.496454 1.727161 2.133858 0.627058 1.379727 1.708616 0.496454 3.539331 23.223108 0.070694 3.811958 -0.704865 -0.732950 1.540692 1.965717 -0.820547 -4.666869 -3.271753 89.465342 2.462915 -15.701677 0.701089 -0.433000 -22.523138 1.906684 -6.438369 2.016115 -2.199350 7.318570 -4.808127 -89.270658 -3.393561 -1.381789 -1.999460 3.027788 2.378588 -4.436364 -12.725248 6.509110 -10.918375 17.609076 -0.254435 -2.117195 18.312987 -7.317451 5.163353 0.005502 -0.048337 0.001314 13.530516 7.432360 10.824763 9.160474 -2.422521 -1.491354 9.484926 -0.592658 -7.354420 0.016149 0.104124 0.011934
-8.887829 88.294125 -23.382860 133.472279 -4.679872 0.124756 2.451784 2.988165 0.855215 1.382964 1.713484 0.497004 1.731218 2.139936 0.627780 1.382964 1.713484 0.497004 3.540998 23.237490 0.070766 3.813978 -0.687538 -0.733246 1.539946 1.963384 -0.819576 -4.700528 -3.254665 89.448395 2.498425 -15.700959 0.706181 -0.427358 -22.517946 1.909588 -6.439561 2.030561 -2.198895 7.346063 -4.773321 -89.271527 -3.192546 -1.373405 -1.824419 3.051376 2.401839 -4.428050 -12.721747 6.489274 -10.910791 17.622795 -0.236133 -2.116702 18.321196 -7.321171 5.162606 0.001973 -0.047206 -0.000216 13.537301 7.422959 10.823057 9.165524 -2.406318 -1.484436 9.496781 -0.602360 -7.356249 0.016302 0.105629 0.009666
-8.891805 88.294094 -23.373858 133.453353 -4.676872 0.121426 2.454719 2.995348 0.856320 1.384751 1.717002 0.497870 1.733461 2.144328 0.628884 1.384751 1.717002 0.497870 3.544245 23.252792 0.070976 3.817707 -0.669030 -0.733753 1.540624 1.966637 -0.819103 -4.732552 -3.241159 89.433312 2.536163 -15.701169 0.710999 -0.416318 -22.517509 1.910317 -6.437639 2.046305 -2.198680 7.374205 -4.736416 -89.271545 -3.002054 -1.369720 -1.659607 3.071015 2.424985 -4.424112 -12.719090 6.465784 -10.902507 17.632468 -0.217398 -2.113861 18.343467 -7.325840 5.160480 0.001628 -0.046303 -0.001047 13.541683 7.409203 10.822987 9.168609 -2.390164 -1.476785 9.508145 -0.612683 -7.357190 0.017164 0.108205 0.006996
-8.895555 88.294054 -23.364272 133.438863 -4.672626 0.116416 2.455260 3.002343 0.858019 1.385281 1.720218 0.498761 1.734133 2.148344 0.630013 1.385281 1.720218 0.498761 3.548955 23.268579 0.072052 3.822840 -0.649880 -0.733658 1.541570 1.971879 -0.818438 -4.760831 -3.229485 89.418557 2.572716 -15.704115 0.718148 -0.396611 -22.521841 1.906226 -6.435993 2.062469 -2.198586 7.404306 -4.700759 -89.268785 -2.819310 -1.368908 -1.506780 3.087016 2.453602 -4.423703 -12.718955 6.440724 -10.895340 17.643831 -0.199600 -2.107718 18.372251 -7.330068 5.156212 0.003237 -0.046118 -0.000831 13.543787 7.396323 10.825385 9.167743 -2.379828 -1.468830 9.514822 -0.620094 -7.359691 0.017839 0.110101 0.005038
-8.899040 88.294027 -23.354952 133.427449 -4.668272 0.113195 2.455926 3.008591 0.858416 1.385409 1.723710 0.499458 1.734301 2.152705 0.630898 1.385409 1.723710 0.499458 3.552766 23.285257 0.074332 3.826725 -0.629716 -0.732053 1.538317 1.976441 -0.818278 -4.785232 -3.219242 89.404590 2.605257 -15.709560 0.724684 -0.372527 -22.528931 1.898241 -6.438694 2.078616 -2.198791 7.434683 -4.666474 -89.264107 -2.645616 -1.370550 -1.364426 3.102117 2.489934 -4.426050 -12.720071 6.418692 -10.889525 17.658070 -0.185411 -2.100526 18.382984 -7.331440 5.153401 0.001367 -0.045493 -0.002212 13.544346 7.385585 10.827164 9.166421 -2.373082 -1.462464 9.517063 -0.624997 -7.361722 0.018388 0.110696 0.003365
-8.901769 88.294056 -23.346411 133.418973 -4.666887 0.112054 2.456929 3.015041 0.858225 1.385153 1.727727 0.499895 1.733990 2.157726 0.631459 1.385153 1.727727 0.499895 3.554299 23.303928 0.077773 3.827888 -0.607280 -0.728668 1.530926 1.980410 -0.818388 -4.808325 -3.211283 89.392240 2.634243 -15.714693 0.726802 -0.354360 -22.533962 1.891646 -6.442156 2.094388 -2.198531 7.464845 -4.631787 -89.260335 -2.481654 -1.368875 -1.228971 3.114150 2.525310 -4.432575 -12.718759 6.403520 -10.884329 17.669933 -0.173762 -2.095642 18.379981 -7.331643 5.152437 -0.002623 -0.044600 -0.004333 13.542047 7.379528 10.827484 9.168299 -2.368099 -1.458484 9.520900 -0.628460 -7.362231 0.019288 0.110808 0.002597
-8.903173 88.294182 -23.338653 133.412670 -4.671140 0.111016 2.457331 3.022761 0.859032 1.384554 1.732283 0.500398 1.733252 2.163419 0.632102 1.384554 1.732283 0.500398 3.554222 23.324934 0.082401 3.827051 -0.582126 -0.723627 1.522985 1.985435 -0.819481 -4.832558 -3.207136 89.380759 2.657372 -15.718537 0.727546 -0.342933 -22.536594 1.885205 -6.441652 2.109605 -2.197417 7.496784 -4.594610 -89.258675 -2.328023 -1.359090 -1.098381 3.122411 2.559280 -4.443205 -12.713130 6.395869 -10.879959 17.677367 -0.162202 -2.093135 18.381617 -7.333200 5.149834 -0.005044 -0.044445 -0.004205 13.537294 7.381550 10.827723 9.171780 -2.367297 -1.454930 9.531224 -0.629133 -7.362742 0.020687 0.110698 0.003294
-8.903400 88.294392 -23.331239 133.407078 -4.679755 0.109202 2.457833 3.031535 0.860041 1.384434 1.737230 0.501052 1.733112 2.169601 0.632938 1.384434 1.737230 0.501052 3.552838 23.347003 0.089319 3.824275 -0.555784 -0.715806 1.513314 1.991284 -0.819594 -4.856829 -3.206809 89.368944 2.671781 -15.723894 0.729623 -0.334063 -22.536035 1.876465 -6.439132 2.123584 -2.193860 7.528359 -4.554128 -89.259540 -2.185490 -1.343572 -0.973067 3.127551 2.594240 -4.455584 -12.707576 6.392453 -10.876900 17.684647 -0.149623 -2.089328 18.387860 -7.336047 5.144329 -0.006454 -0.044576 -0.002817 13.530932 7.390032 10.829746 9.178458 -2.369922 -1.451598 9.541009 -0.627171 -7.364845 0.022204 0.109906 0.005165
-8.902942 88.294653 -23.323591 133.401655 -4.689899 0.106371 2.458486 3.040169 0.859911 1.384539 1.742299 0.501709 1.733255 2.175935 0.633781 1.384539 1.742299 0.501709 3.551440 23.369109 0.099155 3.820808 -0.529433 -0.704822 1.502913 1.995917 -0.816387 -4.879143 -3.207076 89.356873 2.676887 -15.731757 0.731964 -0.328370 -22.534016 1.869665 -6.434914 2.135417 -2.188306 7.557885 -4.509200 -89.261279 -2.053100 -1.324513 -0.853734 3.127397 2.628133 -4.465259 -12.706244 6.390447 -10.872429 17.694218 -0.135419 -2.083381 18.384291 -7.338434 5.138050 -0.009846 -0.044193 -0.003192 13.524935 7.400657 10.835650 9.187720 -2.373210 -1.449864 9.541281 -0.624798 -7.369030 0.023282 0.108564 0.007457
-8.901643 88.294980 -23.315261 133.394590 -4.702142 0.099989 2.458662 3.048994 0.861118 1.384550 1.747596 0.502738 1.733282 2.182551 0.635087 1.384550 1.747596 0.502738 3.551963 23.390699 0.110469 3.819089 -0.503623 -0.692679 1.499980 1.998582 -0.812007 -4.902224 -3.206898 89.346681 2.673581 -15.741542 0.730733 -0.327011 -22.537143 1.868185 -6.426050 2.144489 -2.183650 7.586931 -4.460473 -89.263252 -1.930198 -1.300418 -0.738707 3.124529 2.662760 -4.470076 -12.702671 6.390606 -10.864157 17.702001 -0.120367 -2.077294 18.384442 -7.339944 5.130791 -0.011649 -0.044700 -0.003471 13.523407 7.412027 10.847666 9.195873 -2.375662 -1.448979 9.537240 -0.624197 -7.374267 0.023669 0.108214 0.009337
-8.899869 88.295395 -23.306490 133.384549 -4.717354 0.092202 2.459014 3.057894 0.864078 1.384631 1.753327 0.503859 1.733398 2.189711 0.636511 1.384631 1.753327 0.503859 3.554479 23.411252 0.121727 3.819544 -0.478957 -0.681050 1.505588 2.001000 -0.808896 -4.926433 -3.208441 89.339839 2.663072 -15.754276 0.724659 -0.329158 -22.544944 1.869301 -6.412305 2.152735 -2.179610 7.615844 -4.411364 -89.267750 -1.816057 -1.270616 -0.625153 3.123246 2.698008 -4.474840 -12.692584 6.394172 -10.854234 17.706661 -0.106424 -2.073712 18.392302 -7.340513 5.124284 -0.011066 -0.046210 -0.002883 13.527899 7.423599 10.863768 9.203086 -2.373470 -1.447880 9.526785 -0.627393 -7.380676 0.023116 0.108334 0.010182
-8.898465 88.295889 -23.297635 133.374232 -4.734326 0.086834 2.460248 3.066334 0.866146 1.385085 1.759098 0.504344 1.733976 2.196921 0.637142 1.385085 1.759098 0.504344 3.556668 23.429507 0.133211 3.819556 -0.457064 -0.669102 1.511327 2.005487 -0.805835 -4.946760 -3.212356 89.335483 2.646398 -15.770789 0.716308 -0.332838 -22.553460 1.871351 -6.398365 2.160730 -2.175042 7.643243 -4.361018 -89.272710 -1.710235 -1.236814 -0.512833 3.123736 2.730305 -4.483057 -12.682395 6.400139 -10.845942 17.711252 -0.094463 -2.072984 18.395582 -7.339765 5.121032 -0.011488 -0.047531 -0.003181 13.535029 7.434600 10.879920 9.210947 -2.365977 -1.446498 9.504741 -0.633223 -7.388104 0.022111 0.107291 0.009778
-8.897569 88.296452 -23.288469 133.366145 -4.752005 0.081946 2.462131 3.075845 0.868009 1.386417 1.764817 0.504605 1.735653 2.204067 0.637496 1.386417 1.764817 0.504605 3.556508 23.443358 0.144433 3.816995 -0.440571 -0.656903 1.514231 2.009209 -0.803091 -4.960978 -3.216676 89.333891 2.626364 -15.793756 0.705323 -0.338317 -22.562263 1.876920 -6.389501 2.165384 -2.171721 7.669550 -4.310386 -89.276627 -1.611693 -1.203415 -0.401898 3.126252 2.760670 -4.491470 -12.675033 6.406254 -10.840313 17.715288 -0.083989 -2.071949 18.404988 -7.338345 5.117987 -0.010539 -0.049134 -0.002605 13.541114 7.444482 10.895042 9.218395 -2.356775 -1.444484 9.484744 -0.638513 -7.394867 0.021679 0.105885 0.009159
-8.897346 88.297080 -23.278938 133.359111 -4.769423 0.076675 2.464332 3.086903 0.869285 1.388395 1.770582 0.505051 1.738137 2.211269 0.638086 1.388395 1.770582 0.505051 3.554618 23.452645 0.154790 3.812676 -0.429634 -0.645248 1.516063 2.009751 -0.800759 -4.969594 -3.220986 89.334484 2.605023 -15.824886 0.691747 -0.345409 -22.567646 1.883983 -6.386185 2.167750 -2.171207 7.695528 -4.265638 -89.279428 -1.517571 -1.175805 -0.292910 3.131327 2.791915 -4.501888 -12.668342 6.411849 -10.834786 17.718817 -0.072656 -2.068913 18.408592 -7.336458 5.112551 -0.009435 -0.050236 -0.000720 13.547161 7.451312 10.907289 9.221017 -2.345636 -1.441087 9.482656 -0.643519 -7.399260 0.021969 0.105682 0.008857
